<svg width="40" height="44" viewBox="0 0 40 44" fill="none" xmlns="http://www.w3.org/2000/svg">
<g clip-path="url(#clip0_5714_16099)">
<path d="M39.3343 6.73202C39.2396 5.94865 38.8091 5.48033 38.0429 5.28449C36.9753 5.0035 35.9078 4.70548 34.8402 4.41598C30.2171 3.13875 25.6025 1.86152 20.9707 0.609837C20.5833 0.507659 20.127 0.507659 19.7396 0.609837C14.0833 2.15102 8.427 3.71776 2.77071 5.27598C1.81508 5.53994 1.4621 5.9231 1.38462 6.8938C1.1866 9.35459 1.00581 11.8069 0.816406 14.2677C0.859453 17.7843 1.10051 20.8156 1.65151 23.9916C2.37468 28.1724 3.89853 31.97 6.82568 35.1801C10.3038 39.0033 14.4535 41.7706 19.3952 43.3799C20.084 43.6013 20.7124 43.5843 21.3926 43.3629C25.8952 41.8898 29.778 39.4546 33.0495 36.0827C35.3138 33.7496 37.1045 31.1441 38.0773 28.0106C38.9641 25.1496 39.4548 22.229 39.6614 19.2488C39.9628 15.0681 39.8078 10.8958 39.3171 6.74053L39.3343 6.73202ZM31.6204 16.5156C27.6773 20.4239 23.7343 24.3237 19.7912 28.215C19.1197 28.8791 18.3277 28.8877 17.6475 28.215C15.2455 25.8649 12.8522 23.4978 10.4674 21.1306C9.68396 20.3558 9.70978 19.615 10.4846 18.8316C10.8204 18.491 11.1648 18.1504 11.5091 17.8183C12.4475 16.8902 13.1363 16.8902 14.0661 17.8013C15.4952 19.2148 16.9244 20.6368 18.3621 22.0587C18.4654 22.1694 18.5859 22.2631 18.7323 22.3993C20.7555 20.3984 22.7442 18.4314 24.7244 16.473C25.8349 15.3746 26.9455 14.2677 28.0647 13.1778C28.8051 12.4455 29.5714 12.4455 30.3204 13.1522C30.7681 13.578 31.2157 14.0122 31.6462 14.455C32.2575 15.0936 32.2661 15.8855 31.6376 16.5156H31.6204Z" fill="#0086CB"/>
<path d="M18.7142 22.3998C20.7373 20.3988 22.7261 18.4319 24.7062 16.4734C25.8168 15.375 26.9274 14.2681 28.0466 13.1782C28.787 12.4544 29.5532 12.4459 30.3022 13.1526C30.7499 13.5784 31.1976 14.0126 31.6281 14.4554C32.2393 15.0855 32.2479 15.8859 31.6195 16.516C27.6764 20.4243 23.7334 24.3241 19.7903 28.2239C19.1188 28.8881 18.3267 28.8966 17.6466 28.2239C15.2446 25.8653 12.8512 23.5067 10.4665 21.1311C9.68304 20.3562 9.70887 19.6154 10.4837 18.8321C10.8195 18.4915 11.1638 18.1509 11.5082 17.8188C12.4466 16.8907 13.1354 16.8907 14.0652 17.8018C15.4943 19.2152 16.9234 20.6372 18.3612 22.0592C18.4731 22.1699 18.585 22.2635 18.7314 22.3998H18.7142Z" fill="#FCC84F"/>
</g>
<defs>
<clipPath id="clip0_5714_16099">
<rect width="39" height="43" fill="white" transform="translate(0.824219 0.533203)"/>
</clipPath>
</defs>
</svg>
