<svg width="33" height="47" viewBox="0 0 33 47" fill="none" xmlns="http://www.w3.org/2000/svg">
<g clip-path="url(#clip0_5714_16103)">
<path d="M32.9531 17.2545C32.9531 14.3541 32.9531 11.4427 32.9531 8.54225C32.9531 7.80616 32.7045 7.136 32.2187 6.5647C31.5294 5.77368 30.6367 5.37817 29.5746 5.37817C27.9249 5.37817 26.2752 5.37817 24.6254 5.37817C24.5124 5.37817 24.3995 5.40015 24.2865 5.40015V5.55396C24.2865 6.34498 24.2865 7.136 24.2865 7.92702C24.2865 8.33351 24.0718 8.54225 23.6424 8.54225C20.117 8.54225 16.5915 8.54225 13.0774 8.54225C12.1622 8.54225 11.2356 8.54225 10.3204 8.54225C9.90228 8.54225 9.60849 8.27858 9.63109 7.85011C9.65369 7.52052 9.64239 7.17994 9.64239 6.83936C9.64239 6.36695 9.64239 5.88355 9.64239 5.40015C9.5294 5.38916 9.4164 5.36719 9.32601 5.36719C7.59719 5.36719 5.86838 5.3562 4.13957 5.36719C2.82883 5.37817 1.60849 6.27906 1.15651 7.47657C0.975724 8.00392 0.953125 8.52028 0.953125 9.04763C0.953125 10.7615 0.953125 12.4754 0.953125 14.1893V38.2275C0.953125 39.8754 0.953125 41.5234 0.953125 43.1823C0.953125 44.1052 1.25821 44.9072 1.92488 45.5664C2.63674 46.2695 3.5181 46.5442 4.53505 46.5332C9.58589 46.5222 14.6254 46.5332 19.6763 46.5332C22.648 46.5332 25.6198 46.5332 28.6028 46.5332C29.1113 46.5332 29.6198 46.5442 30.1283 46.4782C31.4616 46.3025 32.5802 45.3137 32.8514 44.0283C32.9644 43.5229 32.9644 42.9846 32.9644 42.4572C32.9644 34.0636 32.9644 25.659 32.9644 17.2654L32.9531 17.2545ZM9.4955 24.9449C9.4955 25.4942 9.03222 25.9447 8.46725 25.9447H5.92488C5.3599 25.9447 4.89663 25.4942 4.89663 24.9449V22.473C4.89663 21.9237 5.3599 21.4732 5.92488 21.4732H8.46725C9.03222 21.4732 9.4955 21.9237 9.4955 22.473V24.9449ZM13.8684 14.7386C14.2413 14.7056 14.6254 14.6946 14.9983 14.6946C16.8514 14.6946 18.7045 14.6946 20.5463 14.6946C23.3373 14.6946 26.1396 14.6946 28.9305 14.6946C29.2243 14.6946 29.5294 14.6836 29.8232 14.6836C30.0379 14.6836 30.23 14.7386 30.3882 14.9034C30.5463 15.0682 30.5689 15.2659 30.5011 15.4747C30.4333 15.6724 30.2752 15.7713 30.0831 15.8152C30.0153 15.8262 29.9362 15.8262 29.8684 15.8262H21.9927C19.5859 15.8262 17.1678 15.8262 14.761 15.8262C14.4898 15.8262 14.2074 15.8262 13.9362 15.8043C13.6424 15.7823 13.4616 15.5735 13.439 15.2879C13.4277 15.0242 13.6085 14.7715 13.8797 14.7496L13.8684 14.7386ZM13.9814 23.0003C15.7328 23.0003 17.4842 22.9894 19.2356 22.9894C20.1509 22.9894 21.0774 22.9894 21.9927 22.9894H29.8458C30.23 22.9894 30.4108 23.0882 30.5124 23.3519C30.648 23.7254 30.3995 24.077 29.9927 24.077C26.8288 24.077 23.6763 24.077 20.5124 24.077C18.5011 24.077 16.4898 24.077 14.4672 24.077C14.2978 24.077 14.117 24.099 13.9475 24.077C13.6424 24.055 13.4051 23.7914 13.4164 23.4947C13.4277 23.2201 13.665 23.0003 13.9814 22.9894V23.0003ZM30.535 31.8664C30.5237 32.1081 30.3656 32.2838 30.1283 32.3168C29.9814 32.3388 29.8232 32.3388 29.6763 32.3388C25.1565 32.3388 20.648 32.3388 16.1283 32.3388C15.4277 32.3388 14.7271 32.3388 14.0266 32.3388C13.7102 32.3388 13.5294 32.2289 13.4503 31.9762C13.3373 31.6247 13.5746 31.2731 13.9701 31.2621C14.343 31.2511 14.7158 31.2621 15.0887 31.2621C17.3938 31.2621 19.6876 31.2621 21.9927 31.2621H23.9701C25.9475 31.2621 27.9362 31.2621 29.9136 31.2621C30.2865 31.2621 30.5463 31.5148 30.5237 31.8554L30.535 31.8664ZM30.3204 40.5236C30.2074 40.5895 30.0605 40.6335 29.9249 40.6445C29.3147 40.6555 28.6932 40.6445 28.0831 40.6445H21.9814C19.4842 40.6445 16.987 40.6445 14.5011 40.6445C14.3317 40.6445 14.1735 40.6445 14.004 40.6445C13.665 40.6335 13.439 40.4138 13.4164 40.0842C13.3938 39.8205 13.6085 39.5898 13.9249 39.5458C14.1396 39.5239 14.3543 39.5349 14.5689 39.5349H29.0096C29.3486 39.5349 29.6876 39.5239 30.0266 39.5349C30.2639 39.5349 30.4559 39.7106 30.5124 39.9304C30.5802 40.1721 30.5124 40.4028 30.3204 40.5346V40.5236Z" fill="#0086CB"/>
<path d="M23.1337 3.81836C23.1337 4.96095 23.1337 6.10353 23.1337 7.24611C23.1337 7.38894 23.0885 7.4219 22.9529 7.4219C20.9529 7.4219 18.9529 7.4219 16.9416 7.4219C15.0885 7.4219 13.2354 7.4219 11.3935 7.4219C11.2354 7.4219 11.0772 7.4219 10.919 7.44387C10.8286 7.44387 10.7834 7.4219 10.7947 7.33401C10.7947 7.23513 10.7947 7.13625 10.7947 7.03737C10.7947 5.89479 10.7947 4.74122 10.7947 3.59863C10.7947 3.4668 10.8399 3.42285 10.9642 3.42285C11.5969 3.42285 12.241 3.42285 12.8738 3.42285C16.1619 3.42285 19.45 3.42285 22.7495 3.42285C23.1563 3.42285 23.1563 3.42285 23.1563 3.81836H23.1337Z" fill="#0086CB"/>
<path d="M19.226 2.29103H14.6836C14.7062 1.60987 15.644 0.533203 16.9322 0.533203C18.1751 0.533203 19.0904 1.47803 19.226 2.29103Z" fill="#0086CB"/>
<path d="M30.3314 40.5347C30.2184 40.6006 30.0715 40.6445 29.9359 40.6555C29.3257 40.6665 28.7042 40.6555 28.0941 40.6555H21.9924C19.4952 40.6555 16.998 40.6555 14.5122 40.6555C14.3427 40.6555 14.1845 40.6555 14.015 40.6555C13.676 40.6445 13.45 40.4248 13.4274 40.0952C13.4048 39.8315 13.6195 39.6008 13.9359 39.5569C14.1506 39.5349 14.3653 39.5459 14.58 39.5459H29.0206C29.3596 39.5459 29.6986 39.5349 30.0376 39.5459C30.2749 39.5459 30.467 39.7217 30.5235 39.9414C30.5913 40.1831 30.5235 40.4138 30.3314 40.5457V40.5347Z" fill="#FCC84F"/>
<path d="M30.5001 15.4636C30.4324 15.6614 30.2742 15.7603 30.0821 15.8042C30.0143 15.8152 29.9352 15.8152 29.8674 15.8152H21.9917C19.5849 15.8152 17.1668 15.8152 14.76 15.8152C14.4888 15.8152 14.2064 15.8152 13.9352 15.7932C13.6414 15.7712 13.4606 15.5625 13.438 15.2769C13.4267 15.0132 13.6075 14.7605 13.8787 14.7385C14.2516 14.7056 14.6357 14.6946 15.0086 14.6946C16.8617 14.6946 18.7148 14.6946 20.5566 14.6946C23.3476 14.6946 26.1499 14.6946 28.9408 14.6946C29.2346 14.6946 29.5397 14.6836 29.8335 14.6836C30.0482 14.6836 30.2403 14.7385 30.3985 14.9033C30.5566 15.0681 30.5792 15.2659 30.5114 15.4746L30.5001 15.4636Z" fill="#FCC84F"/>
<path d="M29.9907 24.0772C26.8269 24.0772 23.6743 24.0772 20.5105 24.0772C18.4992 24.0772 16.4879 24.0772 14.4653 24.0772C14.2958 24.0772 14.115 24.0991 13.9455 24.0772C13.6404 24.0552 13.4032 23.7915 13.4144 23.4949C13.4257 23.2202 13.663 23.0005 13.9794 22.9895C15.7308 22.9895 17.4822 22.9785 19.2337 22.9785C20.1489 22.9785 21.0755 22.9785 21.9907 22.9785H29.8438C30.228 22.9785 30.4088 23.0774 30.5105 23.3411C30.6461 23.7146 30.3975 24.0662 29.9907 24.0662V24.0772Z" fill="#FCC84F"/>
<path d="M30.5348 31.866C30.5235 32.1077 30.3653 32.2835 30.128 32.3164C29.9811 32.3384 29.823 32.3384 29.6761 32.3384C25.1563 32.3384 20.6478 32.3384 16.128 32.3384C15.4275 32.3384 14.7269 32.3384 14.0263 32.3384C13.71 32.3384 13.5292 32.2285 13.4501 31.9758C13.3371 31.6243 13.5744 31.2727 13.9699 31.2617C14.3427 31.2507 14.7156 31.2617 15.0885 31.2617C17.3936 31.2617 19.6874 31.2617 21.9924 31.2617H23.9699C25.9473 31.2617 27.936 31.2617 29.9134 31.2617C30.2862 31.2617 30.5461 31.5144 30.5235 31.855L30.5348 31.866Z" fill="#FCC84F"/>
<path d="M8.69505 12.959H5.7007C5.25762 12.959 4.89844 13.3082 4.89844 13.739V16.6504C4.89844 17.0812 5.25762 17.4304 5.7007 17.4304H8.69505C9.13812 17.4304 9.49731 17.0812 9.49731 16.6504V13.739C9.49731 13.3082 9.13812 12.959 8.69505 12.959Z" fill="#FCC84F"/>
<path d="M5.92627 21.4727H8.46864C9.03361 21.4727 9.49689 21.9231 9.49689 22.4724V24.9444C9.49689 25.4937 9.03361 25.9441 8.46864 25.9441H5.91497C5.35 25.9441 4.88672 25.4937 4.88672 24.9444V22.4724C4.88672 21.9231 5.35 21.4727 5.91497 21.4727H5.92627Z" fill="#FCC84F"/>
<path d="M8.69505 29.4932H5.7007C5.25762 29.4932 4.89844 29.8424 4.89844 30.2732V33.1846C4.89844 33.6154 5.25762 33.9646 5.7007 33.9646H8.69505C9.13812 33.9646 9.49731 33.6154 9.49731 33.1846V30.2732C9.49731 29.8424 9.13812 29.4932 8.69505 29.4932Z" fill="#FCC84F"/>
<path d="M6.66885 17.0239L5.32422 15.6506L5.90049 15.1123L6.66885 15.8923L8.58976 13.9258L9.17733 14.4641L6.66885 17.0239Z" fill="#0086CB"/>
<path d="M6.66885 33.2398L5.32422 31.8665L5.90049 31.3281L6.66885 32.1082L8.58976 30.1416L9.17733 30.6799L6.66885 33.2398Z" fill="#0086CB"/>
<path d="M8.10098 22.3806L5.66406 24.75L6.23135 25.3016L8.66827 22.9322L8.10098 22.3806Z" fill="#0086CB"/>
<path d="M6.23135 22.3811L5.66406 22.9326L8.10098 25.302L8.66827 24.7505L6.23135 22.3811Z" fill="#0086CB"/>
<path d="M5.92627 37.7227H8.46864C9.03361 37.7227 9.49689 38.1731 9.49689 38.7224V41.1944C9.49689 41.7437 9.03361 42.1941 8.46864 42.1941H5.91497C5.35 42.1941 4.88672 41.7437 4.88672 41.1944V38.7224C4.88672 38.1731 5.35 37.7227 5.91497 37.7227H5.92627Z" fill="#FCC84F"/>
<path d="M8.09708 38.6277L5.66016 40.9971L6.22744 41.5486L8.66436 39.1792L8.09708 38.6277Z" fill="#0086CB"/>
<path d="M6.22744 38.6281L5.66016 39.1797L8.09708 41.5491L8.66436 40.9975L6.22744 38.6281Z" fill="#0086CB"/>
</g>
<defs>
<clipPath id="clip0_5714_16103">
<rect width="32" height="46" fill="white" transform="translate(0.953125 0.533203)"/>
</clipPath>
</defs>
</svg>
