<svg width="44" height="44" viewBox="0 0 44 44" fill="none" xmlns="http://www.w3.org/2000/svg">
<g clip-path="url(#clip0_5491_12876)">
<path d="M43.7516 21.4694C43.5531 20.7019 43.0826 20.1563 42.4137 19.7514C41.8307 19.3997 41.2352 19.0605 40.6929 18.6525C40.0911 18.2007 39.8254 17.5394 39.7801 16.7922C39.7473 16.2388 39.9317 15.7464 40.1912 15.2727C40.4631 14.7788 40.732 14.2832 41.0023 13.7861C41.1743 13.4688 41.2618 13.1295 41.2837 12.7653C41.3696 11.3912 40.2959 10.1344 38.9236 10.0375C38.2375 9.98899 37.5482 9.98118 36.8605 9.96085C35.682 9.9249 34.6896 9.02604 34.4708 7.93959C34.3785 7.48625 34.402 7.00946 34.3739 6.54361C34.3832 6.54361 34.3942 6.54361 34.4051 6.54361C34.3879 6.14186 34.4051 5.73386 34.3473 5.33836C34.0894 3.58753 32.2076 2.5855 30.629 3.37962C30.0257 3.68133 29.4505 4.03618 28.8488 4.34101C27.7 4.9241 26.2262 4.52235 25.5307 3.44371C25.204 2.93722 24.893 2.41823 24.5898 1.89767C23.5832 0.165602 21.1575 0.123395 20.1056 1.8242C19.7712 2.36508 19.4664 2.92472 19.1132 3.45309C18.7037 4.06745 18.1254 4.45982 17.3845 4.57081C16.7453 4.66617 16.1467 4.53954 15.5825 4.22533C15.0776 3.94551 14.5743 3.66257 14.0601 3.39994C13.013 2.86375 11.8157 3.06385 11.0077 3.91112C10.506 4.43793 10.2747 5.07886 10.2606 5.80264C10.2497 6.43262 10.2684 7.06574 10.209 7.69103C10.1481 8.35072 9.85422 8.90723 9.32594 9.34494C8.78673 9.79202 8.17405 9.96711 7.4926 9.9843C6.90805 9.99837 6.32351 9.99681 5.74053 10.0421C3.9275 10.186 2.82718 12.1791 3.61335 13.6923C3.92125 14.2848 4.26354 14.86 4.55112 15.4619C4.70273 15.7792 4.83558 16.131 4.86058 16.4764C4.94029 17.6051 4.44171 18.4492 3.47112 19.0229C3.00692 19.2965 2.54585 19.5748 2.08947 19.8608C1.26579 20.3751 0.834414 21.1333 0.828162 22.0963C0.823473 23.0295 1.26735 23.7517 2.04101 24.2598C2.55992 24.6021 3.10382 24.9085 3.63054 25.2399C4.72617 25.9293 5.18255 27.2737 4.66834 28.4508C4.4761 28.8885 4.21821 29.2981 4.00096 29.7264C3.80246 30.1188 3.55395 30.5018 3.44455 30.9192C3.1554 32.0135 3.66805 33.1577 4.63396 33.7533C5.09972 34.041 5.61393 34.1082 6.14221 34.1348C6.78302 34.1676 7.42852 34.1676 8.06464 34.2458C9.26343 34.3927 10.1762 35.4041 10.2325 36.6094C10.2622 37.2722 10.2528 37.935 10.2887 38.5963C10.3247 39.295 10.6169 39.8906 11.1358 40.358C11.9783 41.1209 13.1474 41.296 14.2711 40.6457C14.7213 40.3862 15.1901 40.1626 15.6325 39.8906C16.1889 39.5483 16.7922 39.517 17.4002 39.6077C18.2145 39.7296 18.8053 40.2189 19.2429 40.8927C19.543 41.3554 19.8118 41.8384 20.101 42.3074C20.6214 43.1515 21.4029 43.5877 22.375 43.572C23.2972 43.5564 24.0427 43.1281 24.5382 42.3215C24.8539 41.8071 25.1649 41.2913 25.4791 40.7754C25.8151 40.222 26.3059 39.8406 26.9139 39.6733C27.5891 39.4873 28.2721 39.5061 28.916 39.8656C29.4646 40.172 30.0226 40.4628 30.5852 40.7457C31.126 41.0177 31.6918 41.124 32.2998 40.9896C33.458 40.7316 34.3129 39.7531 34.3692 38.5666C34.3973 37.9569 34.4051 37.3457 34.402 36.736C34.3989 35.5104 35.3882 34.2489 36.8293 34.1989C37.5357 34.1739 38.2422 34.1363 38.9486 34.091C40.6772 33.9784 41.8588 32.0103 41.0039 30.3627C40.7116 29.7983 40.3803 29.2543 40.1005 28.6838C39.9552 28.3852 39.8176 28.0538 39.7942 27.7286C39.7098 26.6156 40.1615 25.7511 41.1211 25.1649C41.5916 24.8773 42.0651 24.5943 42.5372 24.3083C43.5359 23.7017 44.0282 22.5434 43.7516 21.4694ZM22.1437 37.2128C17.98 37.1268 14.4071 35.6402 11.5031 32.6638C8.446 29.531 7.04091 25.7386 7.20345 21.3584C7.49729 13.5203 14.1133 6.92192 22.3907 6.92348C30.5071 6.92348 37.606 13.7814 37.4482 22.0681C37.5967 30.2814 30.6212 37.3879 22.1437 37.2128Z" fill="#3085C7"/>
<path d="M31.619 20.0926C31.1485 20.5116 30.6718 20.9212 30.1998 21.3385C29.3183 22.1155 28.4399 22.8971 27.5553 23.6725C27.4209 23.7897 27.399 23.8913 27.4396 24.0711C27.6709 25.0762 27.8741 26.0877 28.0992 27.0928C28.2211 27.6384 28.3727 28.1777 28.5009 28.7217C28.5681 29.0047 28.6462 29.2907 28.6619 29.5784C28.6791 29.9129 28.529 30.2037 28.232 30.3803C27.9038 30.5757 27.5553 30.5992 27.2161 30.3991C26.5909 30.0301 25.9705 29.6534 25.3453 29.2845C24.4028 28.7264 23.4572 28.173 22.5148 27.6134C22.3897 27.5399 22.2819 27.5305 22.1537 27.6071C21.4363 28.037 20.7142 28.4607 19.9953 28.8874C19.281 29.3111 18.5714 29.7409 17.8525 30.1583C17.6212 30.2912 17.382 30.4366 17.1273 30.4975C16.4536 30.6586 15.8988 30.0989 16.0269 29.4158C16.0816 29.1297 16.1457 28.8452 16.2082 28.5591C16.377 27.7885 16.549 27.0162 16.7178 26.244C16.8631 25.5796 16.9725 24.9043 17.1648 24.2524C17.2742 23.8757 17.1319 23.6943 16.8772 23.4724C15.5877 22.3546 14.3124 21.2197 13.0292 20.0926C12.7369 19.8347 12.6056 19.5158 12.6963 19.1359C12.7932 18.7295 13.0698 18.4731 13.4809 18.4215C14.1358 18.3387 14.7969 18.2887 15.4549 18.2261C16.6365 18.1136 17.8196 18.001 19.0012 17.8932C19.1247 17.8822 19.1982 17.8431 19.2497 17.7228C19.6374 16.8317 20.0359 15.9438 20.4251 15.0528C20.7721 14.2633 21.1112 13.4708 21.4535 12.6782C21.6223 12.2858 21.9083 12.0717 22.3569 12.1014C22.7898 12.0763 23.0493 12.3171 23.2134 12.6954C23.7979 14.0523 24.3825 15.4107 24.9686 16.7676C25.1046 17.0818 25.2484 17.3945 25.3828 17.7103C25.4312 17.8244 25.5047 17.8791 25.6313 17.8885C26.1877 17.9291 26.7441 17.9713 27.3005 18.0229C28.5399 18.1386 29.7809 18.2543 31.0188 18.384C31.5627 18.4403 31.8581 18.7045 31.9613 19.1922C32.0394 19.5596 31.8862 19.8535 31.619 20.0926Z" fill="#FCC84F"/>
</g>
<defs>
<clipPath id="clip0_5491_12876">
<rect width="43" height="43" fill="white" transform="translate(0.828125 0.572266)"/>
</clipPath>
</defs>
</svg>
