<svg width="47" height="46" viewBox="0 0 47 46" fill="none" xmlns="http://www.w3.org/2000/svg">
<g clip-path="url(#clip0_5719_16124)">
<path d="M23.4119 45.562C35.8328 45.562 45.9019 35.4929 45.9019 23.072C45.9019 10.6511 35.8328 0.582031 23.4119 0.582031C10.991 0.582031 0.921875 10.6511 0.921875 23.072C0.921875 35.4929 10.991 45.562 23.4119 45.562Z" fill="#0086CB"/>
<path d="M23.9014 31.3722C23.1514 31.7922 22.3014 32.0522 21.4714 32.3222C21.0614 32.4522 20.9114 32.6022 20.9314 33.0422C20.9714 33.9722 20.9414 34.8922 20.9414 35.8522H17.6414V32.7022C15.6214 32.5622 13.7114 32.2022 11.9414 31.2522C12.2814 29.9522 12.6014 28.6722 12.9214 27.4422C13.9014 27.7922 14.8214 28.1722 15.7614 28.4322C17.1214 28.8122 18.5114 28.9422 19.9114 28.6422C20.0714 28.6122 20.2414 28.5622 20.3914 28.5022C21.9814 27.8422 22.2714 26.1122 20.8714 25.1122C20.0814 24.5522 19.1214 24.2322 18.2314 23.8122C17.0514 23.2622 15.8014 22.8322 14.7014 22.1522C11.0114 19.8922 11.5514 14.9522 14.6514 12.9922C15.4914 12.4622 16.4614 12.1422 17.4014 11.8022C17.7314 11.6822 17.8414 11.5622 17.8414 11.2322C17.8214 10.3422 17.8414 9.45223 17.8414 8.53223H21.0814V11.3822C21.9314 11.5122 22.7214 11.5822 23.5014 11.7522C24.2114 11.9122 24.8914 12.1622 25.5814 12.3722C25.8514 12.4522 25.9714 12.5922 25.8814 12.9122C25.5814 14.0222 25.3014 15.1422 25.0214 16.2322C24.0214 15.9322 23.0614 15.5322 22.0714 15.3922C21.0314 15.2422 19.9514 15.2422 18.9114 15.3522C17.8414 15.4722 17.2714 16.2422 17.3114 17.1722C17.3314 17.7522 17.6514 18.1822 18.1214 18.4322C19.0314 18.9322 19.9814 19.3722 20.9214 19.8122C22.0014 20.3222 23.1314 20.7222 24.1614 21.3122C28.0814 23.5622 27.7514 29.2222 23.9414 31.3722H23.9014Z" fill="#FCC84F"/>
<path d="M46.983 30.5922C46.463 31.4722 46.003 32.2522 45.543 33.0222C43.693 36.1422 41.843 39.2622 39.983 42.3922C39.683 42.8922 39.533 42.9022 39.243 42.4222C36.963 38.5822 34.683 34.7322 32.403 30.8922C32.363 30.8322 32.353 30.7522 32.293 30.6122H36.513V23.2822H42.673C42.673 23.4722 42.693 23.6722 42.693 23.8622C42.693 25.8722 42.723 27.8922 42.683 29.9022C42.673 30.5022 42.873 30.6222 43.413 30.6022C44.563 30.5622 45.713 30.5922 46.983 30.5922Z" fill="#FCC84F"/>
</g>
<defs>
<clipPath id="clip0_5719_16124">
<rect width="46.06" height="44.99" fill="white" transform="translate(0.921875 0.582031)"/>
</clipPath>
</defs>
</svg>
